HIERARCHY
ROOT Hips
{
	OFFSET 0.000000 0.000000 0.000000
	CHANNELS 6 Xposition Yposition Zposition Zrotation Yrotation Xrotation 
	JOINT LeftUpLeg_virtual
	{
		OFFSET 0.000000 0.000000 0.000000
		CHANNELS 3 Zrotation Yrotation Xrotation
		JOINT LeftUpLeg
		{
			OFFSET 10.205400 -3.823500 0.155100
			CHANNELS 3 Zrotation Yrotation Xrotation
			JOINT LeftLeg
			{
				OFFSET 0.708757 -12.982077 0.567790
				CHANNELS 3 Zrotation Yrotation Xrotation
				JOINT LeftFoot
				{
					OFFSET -0.708756 -10.717838 -2.184338
					CHANNELS 3 Zrotation Yrotation Xrotation
					JOINT LeftToeBase
					{
						OFFSET 0.108149 -7.191104 7.560241
						CHANNELS 3 Zrotation Yrotation Xrotation
						End Site
						{
							OFFSET 0.000000 0.000000 0.000000
						}
					}
				}
			}
		}
	}
	JOINT RightUpLeg_virtual
	{
		OFFSET 0.000000 0.000000 0.000000
		CHANNELS 3 Zrotation Yrotation Xrotation
		JOINT RightUpLeg
		{
			OFFSET -10.205400 -3.823500 0.005500
			CHANNELS 3 Zrotation Yrotation Xrotation
			JOINT RightLeg
			{
				OFFSET -0.708756 -12.982134 0.610632
				CHANNELS 3 Zrotation Yrotation Xrotation
				JOINT RightFoot
				{
					OFFSET 0.708754 -10.717769 -1.945823
					CHANNELS 3 Zrotation Yrotation Xrotation
					JOINT RightToeBase
					{
						OFFSET -0.108140 -7.191069 7.372968
						CHANNELS 3 Zrotation Yrotation Xrotation
						End Site
						{
							OFFSET 0.000000 0.000000 0.000000
						}
					}
				}
			}
		}
	}
	JOINT Spine_virtual
	{
		OFFSET 0.000000 0.000000 0.000000
		CHANNELS 3 Zrotation Yrotation Xrotation
		JOINT Spine
		{
			OFFSET 0.000000 6.876099 0.125700
			CHANNELS 3 Zrotation Yrotation Xrotation
			JOINT Spine1
			{
				OFFSET 0.000000 8.022060 0.146608
				CHANNELS 3 Zrotation Yrotation Xrotation
				JOINT Spine2
				{
					OFFSET 0.000000 9.168068 0.167552
					CHANNELS 3 Zrotation Yrotation Xrotation
					JOINT Neck_virtual
					{
						OFFSET 0.000000 0.000000 0.000000
						CHANNELS 3 Zrotation Yrotation Xrotation
						JOINT Neck
						{
							OFFSET 0.000000 10.314075 0.188496
							CHANNELS 3 Zrotation Yrotation Xrotation
							JOINT Head
							{
								OFFSET 0.000000 7.643700 -2.377400
								CHANNELS 3 Zrotation Yrotation Xrotation
								End Site
								{
									OFFSET 0.000000 0.000000 0.000000
								}
							}
						}
					}
					JOINT LeftShoulder_virtual
					{
						OFFSET 0.000000 0.000000 0.000000
						CHANNELS 3 Zrotation Yrotation Xrotation
						JOINT LeftShoulder
						{
							OFFSET 4.392200 8.824978 0.174984
							CHANNELS 3 Zrotation Yrotation Xrotation
							JOINT LeftArm
							{
								OFFSET 8.771219 -2.981674 -0.026999
								CHANNELS 3 Zrotation Yrotation Xrotation
								JOINT LeftForeArm
								{
									OFFSET 8.512804 0.000000 -0.000000
									CHANNELS 3 Zrotation Yrotation Xrotation
									JOINT LeftHand
									{
										OFFSET 18.484802 0.000000 -0.000000
										CHANNELS 3 Zrotation Yrotation Xrotation
										End Site
										{
											OFFSET 0.000000 0.000000 0.000000
										}
									}
								}
							}
						}
					}
					JOINT RightShoulder_virtual
					{
						OFFSET 0.000000 0.000000 0.000000
						CHANNELS 3 Zrotation Yrotation Xrotation
						JOINT RightShoulder
						{
							OFFSET -4.392200 8.824993 0.141379
							CHANNELS 3 Zrotation Yrotation Xrotation
							JOINT RightArm
							{
								OFFSET -8.771282 -2.981682 -0.094208
								CHANNELS 3 Zrotation Yrotation Xrotation
								JOINT RightForeArm
								{
									OFFSET -8.494598 0.000000 0.000000
									CHANNELS 3 Zrotation Yrotation Xrotation
									JOINT RightHand
									{
										OFFSET -18.483803 0.000000 0.000001
										CHANNELS 3 Zrotation Yrotation Xrotation
										End Site
										{
											OFFSET 0.000000 0.000000 0.000000
										}
									}
								}
							}
						}
					}
				}
			}
		}
	}
}
MOTION
Frames: 14
Frame Time: 0.033333
15.919859 36.323254 -8.817798 -177.894148 -58.963117 177.922084 -5.602852 -0.224041 8.028568 -12.314515 8.373149 -16.652546 13.690140 14.004051 21.448450 -0.864063 -0.988674 8.404664 0.000000 0.000000 0.000000 0.618007 -1.447273 7.538160 10.279681 -3.682703 -22.279855 -8.346878 -0.766317 20.284929 7.378490 5.433611 16.668450 0.000000 0.000000 0.000000 -2.566561 0.302675 -2.314103 2.476396 1.794078 -8.520295 -0.266334 -3.316708 9.846479 -0.020685 -0.373347 -0.041522 -0.457531 -1.421610 10.901384 -2.429388 5.275938 23.058447 0.000000 0.000000 0.000000 1.213716 -1.466642 8.048481 -0.976625 -1.440456 -0.152347 -55.167827 -18.293374 13.367841 -172.508940 -80.292302 -171.110241 0.000000 0.000000 0.000000 -2.905127 -0.021218 6.813435 17.613384 2.728639 -0.511037 52.944334 -7.441879 -9.792637 -147.356632 81.749025 -153.391337 0.000000 0.000000 0.000000 
15.568858 36.279522 -9.051291 -177.884176 -58.919998 177.939405 -5.429647 0.024297 8.127760 -12.343289 8.728954 -16.456058 13.866886 13.935090 22.522448 -1.020098 -1.571918 7.703985 0.000000 0.000000 0.000000 0.748637 -1.033613 7.568046 10.185994 -2.457370 -20.826270 -8.878057 -1.265761 20.125012 6.799479 4.461829 15.857642 0.000000 0.000000 0.000000 -2.243423 0.303345 -2.556575 2.583008 1.887217 -8.835975 -0.255622 -3.353017 9.869478 -0.063966 -0.335585 -0.061229 -0.441119 -1.560066 10.917160 -2.291988 5.257224 23.313929 0.000000 0.000000 0.000000 1.279019 -1.437835 8.000294 -1.300818 -1.643106 -0.228997 -55.032941 -17.354081 13.678853 -172.172431 -80.443564 -171.324176 0.000000 0.000000 0.000000 -2.913274 -0.065252 6.769489 17.896013 3.232343 -0.507744 53.081208 -5.682661 -8.147675 -154.849664 79.830896 -161.135801 0.000000 0.000000 0.000000 
15.234415 36.237675 -9.259450 -177.641582 -59.147819 177.803484 -5.171511 -0.060462 8.324125 -12.283029 8.915823 -16.834144 14.104983 13.613186 24.170656 -1.176691 -2.127413 7.272866 0.000000 0.000000 0.000000 0.836328 -1.301242 7.595686 9.959991 -1.068758 -19.691203 -8.926980 -1.546858 19.863935 6.513098 4.074261 14.758138 0.000000 0.000000 0.000000 -1.772434 0.142034 -2.658933 2.685424 2.069338 -9.120265 -0.283865 -3.381846 9.823298 -0.073332 -0.322372 -0.084183 -0.360517 -1.560937 10.977037 -2.042420 5.281143 23.671909 0.000000 0.000000 0.000000 1.329996 -1.516180 8.065513 -1.650154 -2.042872 -0.254642 -54.925195 -16.528641 14.146505 -171.205167 -80.855076 -172.123062 0.000000 0.000000 0.000000 -2.900160 -0.078392 6.663914 18.399681 3.753639 -0.335968 52.957892 -3.750663 -6.302718 -158.901824 78.167601 -165.242466 0.000000 0.000000 0.000000 
14.922453 36.210804 -9.442502 -177.083323 -59.428656 177.399848 -4.897088 -0.330361 8.636886 -12.074971 8.909253 -17.792957 14.317686 13.003408 26.508302 -1.301193 -2.587694 7.102662 0.000000 0.000000 0.000000 1.217219 -1.940387 7.656268 9.661012 -0.530326 -18.912866 -8.629684 -1.109126 19.853728 6.506096 3.694539 13.644113 0.000000 0.000000 0.000000 -1.234383 -0.154835 -2.674913 2.833321 2.327243 -9.375442 -0.240836 -3.428829 9.786626 -0.096354 -0.366135 -0.074901 -0.360967 -1.535386 10.978041 -1.750400 5.218424 23.928214 0.000000 0.000000 0.000000 1.262611 -1.556987 8.035982 -1.889172 -2.512675 -0.108460 -54.763839 -15.846642 14.909391 -171.076827 -81.336372 -172.046113 0.000000 0.000000 0.000000 -2.864824 -0.126100 6.619996 18.811897 4.632759 -0.303891 52.336359 -1.590967 -3.348956 -161.518661 76.986300 -167.829687 0.000000 0.000000 0.000000 
14.639221 36.203262 -9.600883 -177.487329 -59.450732 177.822923 -4.518564 -1.179297 9.106347 -11.427951 8.285694 -19.067701 14.214769 11.514417 29.545868 -2.302058 -3.712035 7.501150 0.000000 0.000000 0.000000 1.486211 -2.447467 7.573822 9.056337 -0.002395 -18.365615 -8.650081 -0.877537 19.984744 6.424243 3.403449 12.923812 0.000000 0.000000 0.000000 -1.044224 -0.195588 -2.637296 2.801418 2.553050 -9.587219 -0.290233 -3.680042 9.777483 -0.110936 -0.324373 -0.055366 -0.437028 -1.401608 11.029428 -1.633288 4.977771 24.157206 0.000000 0.000000 0.000000 1.217385 -1.405039 7.918079 -2.174282 -2.909439 0.038853 -54.563315 -15.312751 15.854916 -171.058017 -81.764454 -171.824337 0.000000 0.000000 0.000000 -2.914851 -0.020678 6.688391 19.009070 5.946215 -0.334495 51.474751 0.972758 0.346284 -164.522550 76.301191 -170.654312 0.000000 0.000000 0.000000 
14.370662 36.217556 -9.733120 -177.682344 -58.892036 178.128765 -4.073112 -1.861505 9.450909 -10.509972 7.175832 -20.795527 13.648671 9.533102 32.848719 -3.468673 -4.893197 8.365944 0.000000 0.000000 0.000000 1.623545 -2.583734 7.434040 8.420907 0.731114 -17.862379 -8.228137 -0.811386 20.198500 6.323691 3.266482 12.449657 0.000000 0.000000 0.000000 -0.591585 -0.745461 -2.612505 2.678105 3.248309 -9.696769 -0.424061 -3.203392 9.781640 -0.049091 -0.226379 -0.087350 -0.394731 -1.416153 11.039216 -1.112650 5.022192 24.197796 0.000000 0.000000 0.000000 1.115692 -1.358239 7.941881 -2.222471 -3.447553 0.090038 -54.390200 -15.042646 16.786669 -170.720046 -82.041029 -171.913307 0.000000 0.000000 0.000000 -2.976582 0.098531 6.721915 18.947628 7.218456 -0.283446 50.228166 3.783001 4.512893 -166.399377 75.855302 -172.267507 0.000000 0.000000 0.000000 
14.089334 36.251404 -9.846777 -178.715888 -57.974878 179.067916 -3.713664 -3.073027 9.851888 -9.522366 6.032672 -22.502743 12.784446 7.772972 36.452241 -4.503088 -5.888587 10.745982 0.000000 0.000000 0.000000 1.242654 -2.512811 7.261180 7.830617 1.476206 -17.349340 -7.822897 -0.722398 20.467738 6.415968 3.259801 11.860365 0.000000 0.000000 0.000000 -0.679328 -1.021238 -2.591165 2.454158 3.778035 -9.724084 -0.400121 -2.988746 9.807006 -0.060822 -0.063539 0.028753 -0.409591 -1.371979 11.007602 -0.777645 4.949357 24.235150 0.000000 0.000000 0.000000 1.051610 -1.138597 7.821595 -2.412687 -3.874869 0.200767 -54.302224 -14.835688 17.542344 -170.319182 -82.237144 -172.057533 0.000000 0.000000 0.000000 -3.075365 0.301229 6.704941 18.422941 8.582232 -0.445315 48.824607 6.719308 8.626333 -168.008474 75.678318 -173.565571 0.000000 0.000000 0.000000 
13.800165 36.286602 -9.944840 -179.466936 -57.450019 179.606736 -2.988361 -3.887199 9.833290 -7.989979 4.478446 -24.488663 11.333192 5.801896 39.467910 -6.142382 -6.996445 14.218783 0.000000 0.000000 0.000000 1.102620 -2.969160 7.200017 7.045499 1.941674 -16.827645 -7.376600 -0.670932 20.680529 6.542674 3.290675 11.159006 0.000000 0.000000 0.000000 -0.596106 -1.473568 -2.546943 2.086251 4.093159 -9.659487 -0.538249 -2.841676 9.925609 -0.040498 -0.025502 -0.021718 -0.567428 -1.178978 11.123105 -0.502905 4.922849 24.264090 0.000000 0.000000 0.000000 0.941334 -1.016288 7.801161 -2.604229 -4.278490 0.283566 -54.072108 -14.410458 18.156823 -171.096129 -82.447056 -171.020492 0.000000 0.000000 0.000000 -3.073675 0.560195 6.729496 17.645020 9.551736 -0.586033 47.428786 9.256944 11.806208 -169.735214 75.669432 -175.161622 0.000000 0.000000 0.000000 
13.496259 36.298267 -10.024879 -179.807653 -56.923746 179.753285 -2.475638 -4.387311 9.656068 -5.638244 2.651383 -26.502700 10.217108 4.222683 41.989066 -6.443906 -6.972152 15.926396 0.000000 0.000000 0.000000 1.158382 -3.644111 7.119452 6.264184 2.310018 -16.370696 -7.198231 -0.766366 21.043128 6.979590 3.594864 10.510291 0.000000 0.000000 0.000000 -0.546554 -1.680053 -2.490405 1.691920 4.217270 -9.554700 -0.593445 -2.789254 10.053821 -0.027560 -0.044052 0.014094 -0.505332 -1.180157 11.096674 -0.179262 5.043999 24.309243 0.000000 0.000000 0.000000 0.977728 -0.956637 7.730900 -2.789807 -4.642561 0.253938 -53.672323 -13.679147 18.626056 -170.767816 -82.547727 -171.099954 0.000000 0.000000 0.000000 -3.045126 0.504629 6.683389 16.822522 10.223039 -0.822797 46.256210 11.048461 13.779376 -170.412523 75.984420 -175.508322 0.000000 0.000000 0.000000 
13.162912 36.294056 -10.070345 179.842596 -56.132052 -179.930405 -2.366723 -4.440409 9.470319 -3.082910 1.878022 -28.132386 10.246956 3.986343 42.904878 -4.561087 -5.460193 15.001402 0.000000 0.000000 0.000000 1.153656 -3.949044 7.013482 5.387394 2.889413 -16.045253 -6.760157 -0.592589 21.380697 7.169802 3.698011 9.941217 0.000000 0.000000 0.000000 -0.562391 -2.033991 -2.551278 1.208969 4.315440 -9.525241 -0.583307 -2.646066 10.098142 0.007884 0.021135 0.015676 -0.517458 -1.115389 11.075794 0.060751 5.238727 24.288767 0.000000 0.000000 0.000000 0.990040 -0.796984 7.650751 -2.932923 -4.779812 0.276906 -52.911683 -12.549761 18.710557 -170.179969 -82.581112 -171.487568 0.000000 0.000000 0.000000 -3.038578 0.630664 6.674470 16.039285 10.508464 -1.103842 45.353904 11.926960 14.439590 -170.708503 76.435575 -175.694131 0.000000 0.000000 0.000000 
12.779575 36.276253 -10.059978 -179.972753 -55.268542 -179.986577 -2.120189 -4.754876 9.286512 -0.252275 1.261488 -29.090172 9.821750 3.570491 41.261760 -3.139505 -4.092082 14.411819 0.000000 0.000000 0.000000 1.420348 -4.351004 6.844943 4.432922 3.406924 -15.872280 -6.527508 -0.375109 21.763119 7.674437 4.136281 9.282952 0.000000 0.000000 0.000000 -0.441289 -2.198846 -2.639341 0.794678 4.258390 -9.518333 -0.559409 -2.579855 10.118515 -0.011430 0.006675 0.028931 -0.494693 -1.038802 11.011084 0.260115 5.530978 24.228824 0.000000 0.000000 0.000000 1.035257 -0.781853 7.561809 -2.995532 -4.936051 0.415950 -51.669264 -11.138861 18.477076 -169.915135 -82.605804 -171.651096 0.000000 0.000000 0.000000 -2.992320 0.694683 6.589239 15.488786 10.399316 -1.407796 44.635413 11.835801 14.112625 -170.526000 76.963705 -175.489416 0.000000 0.000000 0.000000 
12.342741 36.248943 -9.973461 -179.980129 -54.196240 179.969570 -2.023821 -4.997603 9.176078 2.387093 0.682846 -29.416061 8.909816 2.925861 37.980551 -3.099450 -3.632399 15.287258 0.000000 0.000000 0.000000 1.566891 -4.611963 6.790711 3.261759 4.201799 -15.699284 -6.285246 0.218925 22.273148 8.243835 4.553687 8.541442 0.000000 0.000000 0.000000 -0.426681 -2.338806 -2.567410 0.350049 4.210818 -9.449661 -0.554517 -2.468200 10.067248 -0.020852 0.016365 -0.012617 -0.452354 -0.983778 10.871656 0.394670 5.880926 24.115955 0.000000 0.000000 0.000000 1.088184 -0.697533 7.454349 -2.943147 -5.037381 0.453973 -49.990353 -9.747234 17.917751 -168.947202 -82.585743 -172.671909 0.000000 0.000000 0.000000 -2.933631 0.790976 6.475103 15.115004 10.103550 -1.489500 44.023540 11.357729 13.130842 -169.849661 77.645317 -174.836997 0.000000 0.000000 0.000000 
11.843726 36.223694 -9.792928 179.968176 -53.157491 -179.916772 -2.041597 -5.404166 8.994080 4.431740 0.249976 -29.350142 8.093687 2.420540 34.274688 -3.169046 -3.220068 16.182018 0.000000 0.000000 0.000000 1.643740 -4.934182 6.669758 1.939458 5.227869 -15.814465 -6.173795 0.916944 22.848562 8.917703 5.085526 7.933614 0.000000 0.000000 0.000000 -0.459471 -2.541589 -2.563928 -0.043003 4.135110 -9.409822 -0.561710 -2.390373 9.954113 -0.032456 -0.023775 -0.003319 -0.460739 -0.884143 10.667069 0.453594 6.249238 23.928458 0.000000 0.000000 0.000000 1.082539 -0.583294 7.304570 -2.932314 -5.148856 0.623056 -48.083719 -8.535675 17.033530 -168.281682 -82.499178 -173.664936 0.000000 0.000000 0.000000 -2.915115 0.998754 6.300201 14.887649 9.617116 -1.733058 43.474420 10.468764 12.089292 -169.222458 78.354004 -174.257237 0.000000 0.000000 0.000000 
11.287812 36.190792 -9.513425 -179.944544 -51.681265 179.998885 -2.098642 -5.493357 8.913043 6.041052 -0.391326 -28.856866 7.489403 1.073437 30.533251 -3.541366 -3.019143 15.998683 0.000000 0.000000 0.000000 1.771540 -4.886200 6.631161 0.401062 6.700111 -15.976238 -6.145462 2.024606 23.459116 9.741729 5.624309 7.348176 0.000000 0.000000 0.000000 -0.414430 -2.644971 -2.451855 -0.279988 4.200836 -9.318743 -0.558162 -2.216373 9.913738 -0.030888 0.032364 0.019391 -0.480097 -0.765906 10.352327 0.465557 6.575742 23.648555 0.000000 0.000000 0.000000 1.065476 -0.430867 7.081740 -2.929281 -5.340188 0.576848 -46.150666 -7.579740 16.010933 -166.363997 -82.391220 -176.164594 0.000000 0.000000 0.000000 -2.945246 0.990550 6.104719 14.723598 9.298212 -1.784924 42.854704 9.717335 11.084978 -168.278075 79.161025 -173.356567 0.000000 0.000000 0.000000 
